PathFileType	4	(X/Y/Z)	path1_04_0-899.trc
DataRate	CameraRate	NumFrames	NumMarkers	Units	OrigDataRate	OrigDataStartFrame	OrigNumFrames
30	30	4	22	m	30	0	899
Frame#	Time	Hip			RHip			RKnee			RAnkle			RBigToe			RSmallToe			RHeel			LHip			LKnee			LAnkle			LBigToe			LSmallToe			LHeel			Neck			Head			Nose			RShoulder			RElbow			RWrist			LShoulder			LElbow			LWrist		
		X1	Y1	Z1	X2	Y2	Z2	X3	Y3	Z3	X4	Y4	Z4	X5	Y5	Z5	X6	Y6	Z6	X7	Y7	Z7	X8	Y8	Z8	X9	Y9	Z9	X10	Y10	Z10	X11	Y11	Z11	X12	Y12	Z12	X13	Y13	Z13	X14	Y14	Z14	X15	Y15	Z15	X16	Y16	Z16	X17	Y17	Z17	X18	Y18	Z18	X19	Y19	Z19	X20	Y20	Z20	X21	Y21	Z21	X22	Y22	Z22
1	0.0333333333333333	-1.6745310966975089	0.813911734315871	0.28433034240781613	-1.6759268677376968	0.7914917367402622	0.35983132988067795	-1.6962373992965476	0.46098263514986776	0.3326288936483847	-1.7243968837031323	0.1138281002139304	0.3433975006669128	-1.552697185578525	0.03167060574590347	0.37730383072429574	-1.5863982091108206	0.03439505116667698	0.4390703270871519	-1.7631014998778738	0.05682290586543777	0.35040437232033855	-1.669234360892463	0.7877657861017126	0.201432461432638	-1.698756589114149	0.4525497315679402	0.18158510300411027	-1.7314250975916043	0.10337264078586472	0.1671727822661163	-1.5587376806211337	0.027229061474667485	0.13972566738103867	-1.5878415209329495	0.008892698472238697	0.11248420449109842	-1.7727659802221936	0.018641060006109406	0.2060324908102495	-1.663662990223203	1.4501157156689588	0.23983786678773886	-1.5286987455708083	1.6439791067416176	0.27247053839364926	-1.5304301666793938	1.5856733035672415	0.28147809705197546	-1.7142458549486923	1.3508993821378559	0.38652024822890124	-1.7036839699927189	1.0530713507843803	0.422091012258551	-1.629493525107615	0.8514878837679887	0.44595422763753995	-1.7118895395733709	1.3319105371055011	0.16423474015094858	-1.6978195769052211	1.038520568689111	0.13316933838722927	-1.5919078773993185	0.8533356339293546	0.09319858627640502
2	0.0666666666666666	-1.6746853022276702	0.8147907902722792	0.28347395847898915	-1.674632751362055	0.7959130910996643	0.363610312207261	-1.6951477743696202	0.4635266166483266	0.3343589695605816	-1.7230805727936536	0.11674163068648696	0.3476770677574881	-1.5572359044312747	0.03288278232072462	0.37489084365187836	-1.58960886394092	0.03499876125684763	0.43544232249299347	-1.7603160968593328	0.05668120519454052	0.3522364377269454	-1.6701397111645921	0.7897777860257148	0.20607591904756095	-1.696104019804432	0.45333120095096363	0.20291161459661264	-1.7311045888004457	0.09997884043888708	0.17385654442006787	-1.5605595361889875	0.023409773330458288	0.13839408954884802	-1.5917983046010855	0.01175249653861069	0.10327411290281577	-1.7750560252279572	0.026314876396205656	0.19598213753897442	-1.663841381440808	1.4491506986108813	0.23856262941077533	-1.5537660424410698	1.6730931434642982	0.2695772145254219	-1.5296269690140647	1.5838003928075823	0.2766712917820813	-1.7118563792297237	1.3518765381928277	0.38755738848879306	-1.703002388962135	1.0537351486849376	0.42275589787408413	-1.6228711806478715	0.8519533339284732	0.45694991437131377	-1.7097029905475916	1.3366227169905405	0.12944766152947312	-1.6990487058234225	1.0370657479283416	0.13420264341595226	-1.5905802276663406	0.853363562827245	0.09177639223398838
3	0.1	-1.6747903797270993	0.8156001373336321	0.2828530734936136	-1.673538284402699	0.7997251891694432	0.3668835604463108	-1.6941655150231618	0.46577494221815363	0.33590528122120844	-1.7220639191787022	0.1190215270863556	0.3510996443366709	-1.5607639831068298	0.03406509215982872	0.37305701198428676	-1.5920213842691453	0.03557416115140838	0.43238371008021365	-1.7582022244108553	0.05634257195110285	0.35359340063490446	-1.6709235893549441	0.7915664222729916	0.21002134661482233	-1.6939375417420532	0.45411901622026424	0.22007911795401675	-1.7305519976450934	0.09722904951288121	0.18099241048173267	-1.5621042535533214	0.02049944197927683	0.13735791969312175	-1.595129865405444	0.014043228728304234	0.0959310530662088	-1.7769453881012978	0.03256628023173099	0.18809299211408143	-1.6639834899620125	1.4483426874810779	0.23744563486411474	-1.573596868306374	1.6964401792357855	0.2673201250060783	-1.5289638366307354	1.5820646711403537	0.2726759674871498	-1.7098211659977727	1.3527083649413192	0.38851461435035733	-1.702401060568923	1.0544737988367896	0.42335128382409715	-1.617502372695751	0.8524777437105662	0.4659967274343164	-1.707819880557611	1.3407478329059832	0.09844869019353844	-1.7001422298900468	1.0359301173789262	0.13506219897974156	-1.589606305266927	0.8532283239846162	0.09064701479677684
4	0.1333333333333333	-1.674813034224837	0.8162501834556981	0.28259157162609216	-1.6726934605869197	0.8024998925573458	0.3693756844685804	-1.6933368250215706	0.4675424050655447	0.3372233431930679	-1.7214561107490387	0.12038405133973994	0.35333606212752455	-1.56286838888923	0.03513708077732929	0.37201757864451834	-1.5933093332360067	0.03606433109995574	0.4302002101431979	-1.7570097529380553	0.05582437355675841	0.3543870608255821	-1.6715115469627255	0.7928666905353972	0.21294839408426383	-1.6924972396752014	0.4548499044281779	0.23130297850097675	-1.7298003463570408	0.09536597280062313	0.18869832254000324	-1.5631994641937357	0.01885394124936647	0.13684245161570208	-1.5974097326035517	0.015521708091953062	0.09138283715912779	-1.778187703870643	0.03677450064397495	0.18325780081351264	-1.66405229850565	1.4478020430954845	0.23663541537260274	-1.5861117966346159	1.7114463142316052	0.26599746533250196	-1.5284840205552754	1.5806148537038063	0.269828798412597	-1.7083152175557677	1.3532889675629494	0.38934768332697856	-1.7018931683557108	1.0552353069336413	0.42384754493785676	-1.614135164159594	0.8530491020366053	0.471799826644687	-1.7065167092095086	1.3437285242527395	0.07489436061829423	-1.701056043010801	1.035252674667357	0.1356405022659781	-1.5891223042496008	0.8529072249076912	0.0899487920579436
